<?xml version="1.0" standalone="no"?>
<!DOCTYPE svg PUBLIC "-//W3C//DTD SVG 20010904//EN"
 "http://www.w3.org/TR/2001/REC-SVG-20010904/DTD/svg10.dtd">
<svg version="1.0" xmlns="http://www.w3.org/2000/svg"
 width="300.000000pt" height="300.000000pt" viewBox="0 0 300.000000 300.000000"
 preserveAspectRatio="xMidYMid meet">
<metadata>
Created by potrace 1.11, written by Peter Selinger 2001-2013
</metadata>
<g transform="translate(0.000000,300.000000) scale(0.100000,-0.100000)"
fill="#000000" stroke="none">
<path d="M1478 2355 c-2 -1 -46 -5 -98 -8 -133 -9 -342 -63 -480 -124 -264
-117 -536 -307 -762 -530 -116 -114 -135 -148 -123 -221 8 -50 19 -65 132
-175 319 -310 677 -523 1028 -611 195 -49 411 -52 610 -10 352 76 758 314
1089 640 114 112 130 149 104 236 -8 29 -39 66 -117 143 -217 213 -502 414
-721 509 -36 15 -78 34 -95 41 -41 17 -184 63 -215 69 -14 2 -36 7 -50 10 -14
3 -38 8 -55 11 -54 9 -242 25 -247 20z m520 -285 c219 -83 514 -284 732 -497
l75 -73 -80 -78 c-207 -198 -421 -350 -645 -455 -58 -27 -109 -52 -115 -55
-11 -6 10 22 35 48 207 215 265 543 144 817 -54 121 -172 262 -268 318 -25 15
-46 28 -46 30 0 3 112 -34 168 -55z m-1044 -57 c-149 -146 -222 -308 -230
-511 -7 -180 51 -358 157 -484 39 -47 39 -48 12 -37 -142 54 -426 257 -618
441 l-80 78 75 73 c122 118 281 245 430 341 41 27 308 166 318 166 3 0 -26
-30 -64 -67z m641 6 c221 -51 398 -248 422 -469 3 -30 7 -61 8 -68 3 -26 -15
-138 -32 -186 -84 -256 -360 -420 -623 -370 -81 15 -160 46 -215 84 -327 225
-330 704 -5 927 131 90 287 118 445 82z"/>
<path d="M1395 1727 c-148 -36 -231 -214 -168 -358 93 -210 401 -201 481 14
75 199 -104 396 -313 344z"/>
</g>
</svg>
